<svg xmlns="http://www.w3.org/2000/svg" width="32" height="32" viewBox="0 0 32 32" fill="none">
<rect width="32" height="32" rx="4" fill="#010101"/>
<path fill-rule="evenodd" clip-rule="evenodd" d="M21.6012 16.0009C21.6012 19.095 19.0929 21.6033 15.9988 21.6033C14.8196 21.6033 13.7255 21.2389 12.8229 20.6167L11.1825 22.2571C14.2785 24.6464 18.7415 24.4217 21.5803 21.5828C23.7102 19.453 24.3686 16.4089 23.5556 13.7138C23.4246 13.2797 23.5825 12.7982 23.9752 12.5715C24.4392 12.3036 25.0369 12.4962 25.2026 13.0058C25.5093 13.9488 25.675 14.9555 25.675 16.0008C25.675 18.6723 24.5925 21.091 22.8421 22.8421C22.8284 22.8557 22.8147 22.8694 22.8009 22.883C21.053 24.6108 18.6502 25.6776 15.9983 25.6776C14.8384 25.6776 13.7261 25.4735 12.6955 25.0993C12.5351 25.0341 12.3742 24.9707 12.2127 24.9091C12.1848 24.8985 12.1569 24.8879 12.129 24.8774C11.2364 24.5406 10.3279 24.2585 9.40865 24.031C8.95388 23.9184 8.49649 23.8192 8.03709 23.7334C7.61003 23.6537 7.43496 23.1236 7.74216 22.8164L11.3825 19.176C10.7606 18.2736 10.3965 17.1798 10.3965 16.0009C10.3965 12.9068 12.9047 10.3986 15.9988 10.3986C17.1777 10.3986 18.2715 10.7627 19.174 11.3846L20.814 9.74451C17.718 7.35517 13.255 7.57991 10.4162 10.4187C8.2862 12.5488 7.62785 15.5932 8.44119 18.2884C8.57204 18.7221 8.41428 19.2032 8.02201 19.4297C7.55834 19.6974 6.96121 19.505 6.79558 18.9959C6.48866 18.0524 6.32275 17.0454 6.32275 15.9995C6.32275 13.3251 7.40772 10.904 9.16151 9.15253C10.9123 7.40401 13.3297 6.32275 15.9995 6.32275C17.1594 6.32275 18.2717 6.52683 19.3023 6.90103C19.4627 6.96622 19.6236 7.02962 19.7851 7.09122C19.813 7.10186 19.8409 7.11245 19.8688 7.12299C20.7614 7.45976 21.6699 7.74189 22.5891 7.96939C23.0439 8.08194 23.5013 8.18112 23.9607 8.26692C24.3878 8.34669 24.5628 8.87676 24.2556 9.18396L20.6146 12.825C21.2369 13.7276 21.6012 14.8217 21.6012 16.0009ZM15.8983 19.8205C18.0079 19.8205 19.7181 18.1103 19.7181 16.0007C19.7181 15.3421 19.5514 14.7225 19.258 14.1816L14.0793 19.3603C14.6201 19.6538 15.2398 19.8205 15.8983 19.8205ZM15.8983 12.1809C13.7887 12.1809 12.0785 13.8911 12.0785 16.0007C12.0785 16.7117 12.2728 17.3773 12.6111 17.9474L17.845 12.7135C17.275 12.3752 16.6093 12.1809 15.8983 12.1809Z" fill="url(#paint0_linear_488_1731)"/>
<defs>
<linearGradient id="paint0_linear_488_1731" x1="6.32275" y1="16.0002" x2="25.675" y2="16.0002" gradientUnits="userSpaceOnUse">
<stop stop-color="white"/>
<stop offset="1" stop-color="#505050"/>
</linearGradient>
</defs>
</svg>